<svg xmlns="http://www.w3.org/2000/svg" version="1.1" width="440" height="86" viewBox="0 0 440 86" preserveAspectRatio="xMinYMin meet"><path fill-rule="evenodd" clip-rule="evenodd" fill="#00205b" d="M381.7 39.7c0.2 0 0.5 0 0.4 0.1 -0.1 0.4-0.7 0.5-1.2 0.8 -1 0.7-0.8 1.3-0.9 2.3l0.1 16.6c0.1 1.7-0.2 3.5 0.2 5.2 0.1 0.4 0.4 0.6 0.8 0.9 0.3 0.2 0.7 0.3 0.6 0.5 -0.1 0.2-0.4 0.2-0.4 0.2 -1.8-0.3-3.6-0.2-5.4-0.1 -0.1-0.2-0.2-0.3 0-0.5 0.2-0.1 0.2-0.1 0.4-0.1 0.4-0.2 0.7-0.3 0.9-0.7 0.2-0.4 0.2-1.1 0.2-1.1l0-21.1c-0.1-0.7-0.3-1.3-0.8-1.9 -0.4-0.5-1.4-0.6-1.3-1 0-0.1 0.3-0.1 0.3-0.1 1.9 0.2 4 0.2 5.9-0.1L381.7 39.7zM348.6 46c2.7-5.1 8-7.6 13.8-7 2.6 0.2 5.1 1.1 7.6 1.9 0.1 0.9-0.1 2-0.2 2.6 -0.1 0.4-0.3 1.1-0.5 1.3 -0.2 0.1-0.4 0-0.4-0.3 0-1.2-0.7-2.2-1.8-2.8 -3.1-1.7-7.8-1.8-11.1-0.4 -3.5 1.2-5.8 4.9-6 8.5 -0.3 4.8 0.7 9.3 4.2 12.6 3.1 2.8 7.8 3.2 11.7 2.1 1.8-0.5 3.6-1.9 4-3.8 0.1-0.2 0.4-0.4 0.6-0.2 0.3 0.1 0 1-0.2 1.7 -0.3 0.8-0.6 1.9-1 2.8 -5.8 2.2-14.2 2.3-18.8-2.8l-1.1-1.2C346.9 56.8 346.3 50.4 348.6 46zM309.9 39.8c0 0 0.1 0 0.1 0 4.3 0.2 11.3-1.7 14.3 2.5 1.4 1.9 1.7 4.5 0.6 7 -1 2.4-3.4 3.5-5.5 3.9 -1.7 0.3-3.6 0.1-4.6-0.1 -0.2-0.1-0.2-0.4-0.1-0.5 0.1-0.1 0.3-0.1 0.3-0.1 1.9 0.3 4.9 0 6.5-1.5 1.9-1.8 1.8-5.3 0.6-7.5 -0.6-1.5-2.2-2.6-3.7-2.8 -1.1-0.1-3.4 0-4.5 0.3l-0.1 22.7c0.1 0.7 0.4 1.6 1.2 1.8 0.3 0.1 0.8 0.2 0.7 0.6 -0.1 0.3-0.8 0.1-1.3 0.1 -1.4-0.1-3.3-0.2-4.8 0.1 -0.2 0-0.4 0-0.5-0.2 0-0.1 0.1-0.2 0.2-0.3 0.6-0.3 1.4-0.4 1.7-1.1 0.1-0.3 0.2-0.8 0.2-0.8V42.4c-0.1-0.9-0.7-1.7-1.5-2.2C309.7 40.1 309.7 39.9 309.9 39.8zM297 45.5c-1.3-2-3.3-4.1-5.5-5.1 -4.9-2.2-11.3-1.2-15.3 2.5 -3.9 3.8-5.1 9.7-3.3 14.9 1.4 4.2 5.6 8 10 8.5 5.7 0.9 11-1.4 14.1-6.2C299.9 56 299.5 49.8 297 45.5zM295.9 56.7c-0.6 3.4-3.2 6.9-6.6 8.1 -3.7 1.4-7.7 0.3-10.4-2.5 -3-3.2-4.3-7.4-3.9-12 0.5-3.5 2.4-7.1 5.8-8.7 2.5-1.5 6.5-1.5 9 0 2.2 1.1 3.9 3.3 5 5.5C296.2 49.9 296.4 53.5 295.9 56.7zM227.9 46.5c-0.1-2.3 0.9-4.5 2.9-5.8 2.6-1.8 6.3-0.9 8.9 0l0 0.3c0.1 0.9 0.1 1.9-0.1 2.8 0 0.1-0.1 0.2-0.2 0.2l-0.2 0c-0.6-1.4-2-2.8-3.6-3 -2.1-0.5-4.3 0.3-5.4 2 -0.7 1.3-0.6 3.1 0 4.3 0.6 0.9 1.7 1.9 2.5 2.6 2.3 1.8 4.8 3.3 6.9 5.3 1.5 1.7 1.8 4.4 1.1 6.4 -0.6 2.1-2.6 4.1-4.7 4.5 -2.7 0.7-5.4-0.1-8.1-0.3 -0.1-1.4-0.2-2.8-0.3-4.2 0-0.3 0.3-0.3 0.5-0.3 0.2 0.6 0.3 0.9 0.4 1.3 1 2.3 3.6 2.7 6 2.6 1.8-0.2 3.6-1.2 4.2-3 0.7-1.6 0.2-3.5-0.9-4.8 -0.9-1-2-1.9-3-2.6C232.2 52.6 228 50.5 227.9 46.5zM411.6 39.7c0.2 0 0.5 0 0.4 0.1 -0.1 0.4-0.7 0.5-1.2 0.8 -1 0.7-0.8 1.3-0.9 2.3l0.1 16.6c0.1 1.7-0.2 3.5 0.2 5.2 0.1 0.4 0.4 0.6 0.8 0.9 0.3 0.2 0.7 0.3 0.6 0.5 -0.1 0.2-0.4 0.2-0.4 0.2 -1.8-0.3-3.6-0.2-5.4-0.1 -0.1-0.2-0.2-0.3 0-0.5 0.2-0.1 0.2-0.1 0.4-0.1 0.4-0.2 0.7-0.3 0.9-0.7 0.2-0.4 0.2-1.1 0.2-1.1V42.8c-0.1-0.7-0.3-1.3-0.8-1.9 -0.4-0.5-1.4-0.6-1.3-1 0-0.1 0.3-0.1 0.3-0.1 1.9 0.2 4 0.2 5.9-0.1L411.6 39.7zM347.9 65.7c-1-0.1-1.8-0.7-2.2-1.7 -3.4-8.1-7-16.2-10.4-24.3 0 0-0.1-0.2-0.3-0.1 -0.2 0.1-0.3 0.5-0.3 0.5l-7.5 17.2 -2.6 5.7c0 0-0.5 0.9-0.9 1.4 -0.8 0.8-1.5 1.2-2.4 1.6 0.3 0.7 0.9 0.3 1.3 0.2 2.2-0.4 2.8 0 4.3 0.1 -0.5-0.6-0.8-1.1-0.7-1.9 0.4-1.7 1.2-3.3 1.8-4.9l0.1-0.1 12.5 0c0.5 1.6 1.4 3.1 1.8 4.7 0 0.1 0.1 0.4 0.1 0.5 0 0.8-0.2 1.2-0.8 1.7l2.6-0.1c1.4 0 2.1 0 3.9 0.1C348.3 65.9 348.2 65.7 347.9 65.7zM328.9 57.5c0 0 0.7-1.4 0.7-1.4l5-11.7 5.3 13.1H328.9zM170.1 63.2c0-0.5 0-1 0-1.4V42.9c-0.1-1 0.1-1.9-1.1-2.7 -0.2-0.1-0.4-0.2-0.4-0.3 0-0.2 0.2-0.2 0.3-0.2l11.4 0c0.5 0 1 0 1.2 0.5 0.3 0.6 0.3 1.2 0.3 1.8 -0.5 0.3-0.7-0.4-0.9-0.5 -0.6-0.5-1.6-0.5-3.2-0.4l-5 0c-0.1 3.1-0.1 6.8 0 9.9l6.5-0.2c0.4 0 1-0.3 1.3-0.8 0.2-0.4 0.2-0.9 0.5-0.9 0.2 0 0.3 0.2 0.3 0.4l0 0.3c0 1.2-0.2 2.5 0 3.7 0 0.2-0.1 0.4-0.3 0.4 -0.2 0-0.3-0.6-0.5-0.9 -0.3-0.6-0.9-0.7-1.4-0.7l-6.4 0.1 0 10.7 0 0.4c0.1 0.7 0.4 1.5 1.2 1.8 0.3 0.1 0.8 0.2 0.7 0.6 -0.1 0.3-0.8 0.1-1.3 0.1 -1.4-0.1-3.3-0.2-4.8 0.1 -0.2 0-0.4 0-0.5-0.2 0-0.1 0.1-0.2 0.2-0.3 0.6-0.3 1.4-0.4 1.7-1.1 0.1-0.3 0.1-0.5 0.2-0.8C170 63.8 170.1 63.2 170.1 63.2zM388.7 63.2c0-0.5 0-1 0-1.4V42.9c-0.1-1 0.1-1.9-1.1-2.7 -0.2-0.1-0.4-0.2-0.4-0.3 0-0.2 0.2-0.2 0.3-0.2l11.4 0c0.5 0 1 0 1.2 0.5 0.3 0.6 0.3 1.2 0.3 1.8 -0.5 0.3-0.7-0.4-0.9-0.5 -0.6-0.5-1.6-0.5-3.3-0.4l-5 0c-0.1 3.1-0.1 6.8 0 9.9l6.5-0.2c0.4 0 1-0.3 1.2-0.8 0.2-0.4 0.2-0.9 0.5-0.9 0.2 0 0.3 0.2 0.3 0.4l0 0.3c0 1.2-0.2 2.5 0 3.7 0 0.2-0.1 0.4-0.3 0.4 -0.2 0-0.3-0.6-0.5-0.9 -0.3-0.6-0.9-0.7-1.4-0.7l-6.4 0.1 0 10.7 0 0.4c0.1 0.7 0.4 1.5 1.2 1.8 0.3 0.1 0.8 0.2 0.7 0.6 -0.1 0.3-0.8 0.1-1.3 0.1 -1.4-0.1-3.3-0.2-4.8 0.1 -0.2 0-0.4 0-0.5-0.2 0-0.1 0.1-0.2 0.2-0.3 0.6-0.3 1.4-0.4 1.7-1.1 0.1-0.3 0.1-0.5 0.2-0.8C388.7 63.8 388.7 63.2 388.7 63.2zM266.2 60.7l0-18.6c0 0 0-0.4-0.1-0.6 -0.2-0.9-1.1-1.1-1.9-1.3 -0.1-0.1-0.3-0.3-0.2-0.5 0.1-0.1 0.4-0.1 0.4-0.1 0.4 0 0.7 0.1 1.1 0.1 1.5 0 3 0 4.5-0.1 0.1 0.3-0.1 0.5-0.4 0.7 0 0-0.9 0.4-1.2 0.9 -0.4 0.7-0.4 2.9-0.4 4.3 0 0.9 0 20.2 0 20.2 0 0.3 0 0.7-0.2 0.7 -0.2 0.1-0.4-0.1-0.4-0.1s-15.5-18.4-19-22.3c0 1.9-0.1 6-0.1 10 0 4.4 0 8.8 0.3 10.4 0 0.4 0.4 0.8 0.8 1.1 0.3 0.2 1 0.1 1 0.5 0 0.2-0.3 0.2-0.3 0.2 -1.4-0.1-4.1-0.1-5.6 0.1 -0.3-0.7 0.6-0.5 0.9-0.7 0.7-0.4 1-1.2 1-1.9l0.3-21.5c0 0 0-0.4-0.1-0.6 -0.2-0.9-1.1-1.1-1.9-1.3 -0.1-0.1-0.3-0.3-0.2-0.5 0.1-0.1 0.4-0.1 0.4-0.1 1.7 0.1 3.4 0.2 5-0.2 0.2 0.6-0.2 0.6-0.2 0.9 -0.1 0.5 0 1 0.3 1.4L266.2 60.7zM417.5 46c2.7-5.1 8-7.6 13.8-7 2.6 0.2 5.1 1.1 7.6 1.9 0.1 0.9-0.1 2-0.2 2.6 -0.1 0.4-0.3 1.1-0.5 1.3 -0.2 0.1-0.4 0-0.4-0.3 0-1.2-0.7-2.2-1.8-2.8 -3.1-1.7-7.8-1.8-11.1-0.4 -3.5 1.2-5.8 4.9-6 8.5 -0.3 4.8 0.7 9.3 4.2 12.6 3.1 2.8 7.8 3.2 11.7 2.1 1.8-0.5 3.6-1.9 4-3.8 0.1-0.2 0.4-0.4 0.6-0.2 0.3 0.1 0 1-0.2 1.7 -0.3 0.8-0.6 1.9-1 2.8 -5.8 2.2-14.1 2.3-18.8-2.8l-1.1-1.2C415.7 56.8 415.1 50.4 417.5 46zM227.6 75.4h0.3c0.9 0 1.3 0.5 1.3 1.7v4.1c0 1.9-1 3.1-3 3.1 -1.4 0-2.8-0.7-2.8-2.8v-5c0-0.8 0.4-1.1 1.1-1.1h0.3v-0.7h-4.8v0.7h0.3c0.9 0 1.1 0.3 1.1 1.1v5c0 2.6 1.7 3.9 4.5 3.9 1.8 0 4.3-0.7 4.3-4.5v-4.2c0-0.8 0.2-1.4 1.4-1.4h0.1v-0.7h-4V75.4zM241.9 76.8l7.3 8.4h0.8v-9c0-0.6 0.3-0.9 1.3-0.9h0.2v-0.7h-3.9v0.7h0.2c1.2 0 1.5 0.2 1.5 1.4v5.1l-6.2-7.2h-3.2v0.7c0.5 0 0.9 0.1 1.2 0.4v7.7c0 0.7-0.2 1.1-1.2 1.1l-0.1 0.7h3.7v-0.7c-1.2 0-1.5-0.3-1.5-1.4V76.8zM260.1 75.4h0.2c0.9 0 1.1 0.4 1.1 1.3v6.7c0 0.7-0.3 1.2-1.1 1.2h-0.2v0.7h4.9v-0.7h-0.2c-0.9 0-1.2-0.4-1.2-1.2v-6.7c0-0.9 0.3-1.3 1.2-1.3h0.3v-0.7h-4.9V75.4zM278.1 85.4h1l3.2-8.3c0.5-1.3 0.8-1.8 1.7-1.8h0.1v-0.7h-3.9v0.7h0.3c0.9 0 1.2 0.4 1 1l-2.3 6.1 -2.4-5.6c-0.4-1-0.2-1.5 1.1-1.5h0.3v-0.7h-5.3v0.7h0.1c0.9 0 1.1 0.2 1.6 1.4L278.1 85.4zM299.5 77.1h0.6l-0.2-2.4h-8.4v0.7h0.2c1.1 0 1.3 0.3 1.3 1.2v6.7c0 0.8-0.3 1.2-1.2 1.2h-0.6v0.7h9.2l0.2-2.6H300c-0.3 1.4-0.8 1.7-1.8 1.7h-2.6c-0.4 0-0.6-0.2-0.6-0.9v-3h2.2c1.2 0 1.4 0.3 1.4 1.2h0.6v-3.3h-0.6c0 0.9-0.3 1.2-1.1 1.2h-2.5v-3.8h3.3C299.2 75.6 299.4 76 299.5 77.1zM318.8 83.7c-1.1-1.2-1.6-2.5-2.6-3.4 1.4-0.4 2.3-1.4 2.3-2.7 0-0.7-0.2-1.4-0.7-1.9 -0.8-0.8-2-1.2-4.2-1.2 -0.6 0-1.7 0.1-2.6 0.1 -0.6 0-1 0.1-2 0.1v0.8h0.5c1 0 1.5 0.4 1.5 1.2v6.6c0 1-0.7 1.2-1.6 1.2h-0.4v1h6v-1h-1c-0.9 0-1-0.3-1-1.2v-2.8h1c1 1 1.9 2.8 2.6 3.7 0.7 0.8 1.5 1.2 3.4 1.2 0.5 0 1 0.1 1 0v-0.7C319.8 84.6 319.4 84.4 318.8 83.7zM313.2 80.5h-0.4v-5h0.6c1.5 0 2.7 0.7 2.7 2.5C316.2 79.8 315.1 80.5 313.2 80.5zM329.5 85.1h0.4c0.1-0.2 0.2-0.3 0.3-0.3 0.3 0 1.4 0.5 2.6 0.5 1.8 0 3.3-1.4 3.3-3.1 0-0.8-0.2-1.5-0.9-2.2 -1.7-1.9-4.3-2.2-4.3-3.7 0-0.7 0.6-1.2 1.5-1.2 1.2 0 2.2 0.9 2.5 2.3h0.6l-0.3-2.7H335c-0.1 0.2-0.2 0.2-0.3 0.2 -0.2 0-1.1-0.4-2.3-0.4 -1.8 0-3.1 1.1-3.1 2.7 0 3.3 4.9 3.2 4.9 5.8 0 0.9-0.8 1.6-1.8 1.6 -1.2 0-2.1-0.9-2.6-2.5h-0.6L329.5 85.1zM345.2 75.4h0.2c0.9 0 1.1 0.4 1.1 1.3v6.7c0 0.7-0.3 1.2-1.1 1.2h-0.2v0.7h4.9v-0.7h-0.2c-0.9 0-1.2-0.4-1.2-1.2v-6.7c0-0.9 0.3-1.3 1.2-1.3h0.3v-0.7h-4.9V75.4zM365 75.6h1.8c1.2 0 1.4 0.2 1.7 2h0.6l-0.3-3.1h-0.5c-0.2 0.3-0.3 0.3-0.7 0.3h-7.3c-0.2 0-0.3 0-0.4 0 -0.1 0-0.2-0.1-0.3-0.2h-0.5l-0.3 3.1h0.6c0.3-1.8 0.5-2 1.7-2h1.8v7.7c0 0.9-0.3 1.3-1.2 1.3h-0.5v0.7h5.5v-0.7h-0.4c-1.1 0-1.3-0.4-1.3-1.3V75.6zM383.8 81l2.6-4.4c0.6-0.9 0.8-1.1 1.7-1.2v-0.7h-3.6v0.7h0.2c1.1 0 1 0.7 0.6 1.3l-1.8 3.1 -2.4-3.5c-0.3-0.5-0.2-0.9 0.7-0.9h0.2v-0.7h-5v0.7h0.1c0.8 0 1 0.2 1.4 0.8l3.3 4.8v2.3c0 0.8-0.2 1.2-1.2 1.2h-0.4v0.7h5.2v-0.7h-0.2c-1.1 0-1.3-0.4-1.3-1.2V81zM224.1 62.6c-0.3 0.7-1 1.5-1.8 1.7 -2.8 0.5-5.8 0.1-8.7 0.3 -0.2-3.8-0.1-7.7-0.1-11.5 1.8-0.2 4.3-0.2 6.1-0.1 0.2 0 1 0.1 1.5 0.3 0.2 0.2 0.4 0.4 0.5 0.8 0.1 0.3 0.3 0.3 0.5 0.1 0-0.5-0.1-1.4-0.1-1.4 0-0.9 0-1.8 0.1-2.7 -0.2-0.1-0.4-0.2-0.5 0.1 -0.2 0.7-0.7 0.9-1.2 1 -2 0.4-4.8 0.2-6.9 0.3 -0.2-3.4 0-6.9 0-10.4l5.6-0.1c0.8-0.1 1.8 0.1 2.2 0.9 0.2 0.2 0.3 0.3 0.6 0.1 -0.1-0.8-0.1-1.5-0.6-2.1 -0.2-0.2-0.6-0.4-0.8-0.4l-10.7-0.1h0.1v0.4c0 0.5 0.2 0.5 0.4 0.7 0.8 0.7 0.6 1.8 0.6 2.7v13.3l0 6.9 -0.1 1c-0.2 0.6-0.8 0.9-1.3 1.2 -0.1 0-0.3 0.1-0.5 0.1 -0.3 0-1-0.1-1-0.1 -0.2 0-0.4-0.1-0.6-0.1 -1-0.3-1.8-0.9-2.6-1.6 -3.3-3.5-5.9-7.3-8.4-11.2 1.3-0.8 2.5-2.2 3.1-3.6 1-2.2 0.8-5.1-0.6-7.1 -0.6-0.7-1.3-1.4-2.1-1.8 -1.7-0.9-3.6-0.9-5.6-0.9 -1.9 0.1-3.9 0.3-5.8 0.2 -0.2 0-0.4 0.2-0.2 0.3 0.2 0.2 0.4 0.1 0.7 0.3 0.8 0.5 1.1 1.3 1.1 2.2 0 7.6 0 13.7-0.1 21.4 -0.1 0.5 0 0.9-0.4 1.4 -0.4 0.3-1 0.4-1.2 0.5 -0.2 0-0.4 0.2-0.4 0.3 0 0.1 0.1 0.3 0.3 0.3 2 0 3.9-0.1 5.9 0.1 0 0 0.2-0.1 0.2-0.3 0-0.4-0.6-0.3-1-0.6 -0.5-0.4-0.7-1-0.7-1.8 0-3.2 0-6.5 0.1-9.8 1.4 0 2.8 0 4.1-0.2 0.7 1.1 1.5 2.1 2.2 3.1 2.4 3 4.1 6.7 7.6 8.6 1.5 0.8 3.4 0.9 5.2 0.8l1.2-0.1c4.4-0.2 8.2 0.1 12.7 0 0.4-0.1 1-0.3 1.2-0.8 0.5-0.9 0.7-1.7 0.9-2.7C224.4 62.5 224.2 62.3 224.1 62.6zM190.1 52.6c-0.1 0-0.5 0.1-0.6 0l-0.1-11.7c1.7-0.7 4-0.6 5.5 0.5 0.6 0.4 1.2 1 1.6 1.7 1.1 1.8 1.1 4.7 0.2 6.7C195.5 52.3 192.8 52.8 190.1 52.6z"/><path fill-rule="evenodd" clip-rule="evenodd" fill="#00205b" d="M53.4 38.1c-0.2 0.2-0.3 0.3-0.5 0.5l2.9 3.2c0.4 0.4 0.5 0.4 1 0 1.5-1.4 1-2.8 0.3-3.6 -0.5-0.6-1.2-0.9-1.7-0.9C54.7 37.3 54.1 37.5 53.4 38.1zM71.1 20.7L69.4 0.9l4.3 19.3c2.3-0.4 4.7-0.6 7.2-0.7L82 0l1.3 19.5c2.4 0 4.8 0.3 7.2 0.7l4.3-19.2 -1.8 19.7c2.5 0.5 5 1.3 7.4 2.2L107.7 4l-5 19.8c2.3 1 4.5 2.2 6.6 3.5L120 9.1l-8.4 19.7c2 1.4 3.8 2.9 5.5 4.6l14.2-17.3 -12.2 19.4c1.5 1.7 3 3.4 4.3 5.3l18-16 -16.3 18.7c1.1 1.8 2.1 3.6 2.9 5.5l22-14.1 -20.6 17.3c0.7 1.8 1.2 3.6 1.7 5.5l23.5-10L132 61.5c0.3 1.6 0.5 3.3 0.6 5l23.2-5.8 -23.1 9.6c0 1.6-0.1 3.2-0.3 4.8l27.8-2.3 -28.4 6.4c-0.2 1.2-0.5 2.3-0.8 3.5l33 2.8 -2.2 0.2H128c1.7-4.9 2.6-10.2 2.6-15.7 0-26.7-21.7-48.4-48.4-48.4 -26.7 0-48.4 21.7-48.4 48.4 0 5.5 0.9 10.8 2.6 15.7H2.2L0 85.4l33.4-2.9c-0.3-1.1-0.5-2.2-0.7-3.3L3.9 72.8l28.2 2.3c-0.2-1.5-0.2-3.1-0.3-4.7L8.3 60.6l23.7 5.9c0.1-1.6 0.3-3.3 0.5-4.9L9.4 47.8 33.2 58c0.4-1.8 1-3.6 1.6-5.4L13.9 35l22.3 14.3c0.8-1.9 1.8-3.7 2.9-5.5l-16.5-19 18.3 16.3c1.3-1.8 2.7-3.6 4.2-5.2L32.7 16.1l14.4 17.6c1.7-1.7 3.5-3.2 5.4-4.6l-8.5-20 10.8 18.4c2.1-1.3 4.3-2.5 6.5-3.6L56.4 4l7.4 18.9C66.2 22 68.6 21.3 71.1 20.7z"/><polygon fill-rule="evenodd" clip-rule="evenodd" fill="#00205b" points="96.7,64.7 100,64.7 100,65.7 100.8,65.7 100.8,80.8     100,80.8 100,81.8 96.7,81.8 96.7,80.8 95.9,80.8 95.9,65.7 96.7,65.7   "/><polygon fill-rule="evenodd" clip-rule="evenodd" fill="#00205b" points="67.9,64.7 67.9,65.7 68.6,65.7 68.6,80.8 67.9,80.8     67.9,81.8 64.5,81.8 64.5,80.8 63.8,80.8 63.8,65.7 64.5,65.7 64.5,64.7   "/><path fill-rule="evenodd" clip-rule="evenodd" fill="#00205b" d="M82.3 37.3c17.9 0 32.4 14.5 32.4 32.4 0 5.8-1.5 11.2-4.1 15.8h-4.4v-3.8h-1.8v-1.1h-0.8v-15h0.8v-1l1.8 0v-8h-7.1c0 0 0 0-16.9-14.7L65.4 56.8h-7.1v8l1.8 0v1h0.8v15h-0.8v1.1h-1.8v3.8H54c-2.6-4.7-4.1-10.1-4.1-15.8C49.8 51.8 64.4 37.3 82.3 37.3zM74.2 85.6v-3.8h-1.9v-1.1h-0.8v-15h0.8v-1l2 0c0-3.7 3.5-6.8 8-7 4.5 0.2 8 3.2 8 7l2 0v1H93v15h-0.8v1.1h-1.9v3.8H74.2z"/><path fill-rule="evenodd" clip-rule="evenodd" fill="#00205b" d="M72.1 28.9c-0.5-0.3-1.2-0.4-2.1-0.1 -0.2 0.1-0.4 0.1-0.6 0.2l1.1 4.2c0.2 0.6 0.2 0.6 0.9 0.4 2-0.5 2.1-2 1.9-3.1C73 29.8 72.6 29.2 72.1 28.9zM85.7 27c-1.1-0.1-2 0.7-2.1 2.1 -0.2 1.8 0.6 3 1.9 3.1 1.2 0.1 1.9-0.9 2-2.2C87.7 28.6 87.1 27.2 85.7 27zM39.8 63.8c-0.2 1.1 0.6 2 2 2.2 1.8 0.2 3-0.5 3.2-1.7 0.2-1.2-0.8-2-2.1-2.2C41.4 61.9 40 62.4 39.8 63.8zM119.8 52c0.8-0.4 0.8-1.2 0.5-2l-0.2-0.4 -2.3 1.1C118.1 51.6 118.6 52.6 119.8 52zM82.3 24C57 24 36.6 44.4 36.6 69.7c0 5.6 1 10.8 2.8 15.8h11.9c-2.4-5-3.8-10.1-3.8-15.8 0-19.2 15.6-34.8 34.8-34.8 19.2 0 34.8 15.5 34.8 34.8 0 5.7-1.4 10.8-3.8 15.8h11.9c1.8-5 2.8-10.2 2.8-15.8C128 44.4 107.5 24 82.3 24zM44.7 74.8c0-0.4 0-0.7-0.5-0.7l-3.8 0.3c-0.6 0-0.7 0.2-0.7 0.8l-0.5 0 -0.3-4.9 1.5-0.1 0 0.5c-0.4 0.1-0.8 0.1-0.8 0.6l0.1 1.7 2-0.1 -0.1-1.2c0-0.6-0.1-0.7-0.7-0.7l0-0.5 2-0.1 0 0.5c-0.4 0-0.7 0.1-0.6 0.6l0.1 1.4 1.4-0.1c0.8-0.1 0.7-0.2 0.7-0.9l0.5 0 0.2 3L44.7 74.8zM45.5 64.5c-0.7 4.7-6.9 3.7-6.2-1.1C39.9 58.9 46.2 59.9 45.5 64.5zM47.7 56c-1.3 3.2-3.5 1.7-5.8 0.7 -0.6-0.2-0.6 0.1-0.8 0.5l-0.5-0.2 1.2-2.9 0.5 0.2c-0.2 0.4-0.3 0.8 0.2 1l2.6 1.1c1 0.4 1.7-0.2 2-1 0.4-1.1 0.1-1.9-0.9-2.3l-2.1-0.9c-0.6-0.2-0.9-0.2-1.1 0.3l-0.1 0.2 -0.5-0.2 1-2.4 0.4 0.3c-0.2 0.6-0.2 0.8 0.3 1.1C46.2 52.5 48.9 53.1 47.7 56zM53 46.5l-6.3 1 2.8 1.9c0.6 0.4 0.8 0.1 1.1-0.4l0.4 0.3 -1.4 2 -0.4-0.4c0.3-0.4 0.4-0.6 0-0.9l-3.5-2.5c-0.3 0.1-0.4 0.3-0.6 0.5l-0.4-0.3 1.2-1.7 5.3-0.8 -2.2-1.5c-0.6-0.4-0.8-0.2-1.2 0.4l-0.4-0.3 1.5-2.1 0.3 0.4c-0.2 0.3-0.5 0.6-0.1 0.9l4.2 2.9L53 46.5zM57.2 42.2l-2.3 2.1 -0.3-0.4c0.4-0.3 0.7-0.6 0.3-1l-2.4-2.7c-0.5-0.5-0.7-0.4-1.2 0l-0.3-0.4c0.4-0.4 0.8-0.7 1.1-1.1 0.3-0.3 0.6-0.6 0.9-0.9 1.4-1.3 2.2-1.7 3.3-1.6 1.6 0.1 2.8 1.6 2.7 3.2C58.9 40 58.6 40.9 57.2 42.2zM61.7 38.5l-0.2-0.5 0.4-0.2c0.5-0.2 0.5-0.5 0.3-0.8l-1.8-3.3c-0.3-0.6-0.6-0.4-1.1-0.1l-0.2-0.5 4.7-2.5 0.8 1.3 -0.4 0.2c-0.2-0.3-0.5-0.7-0.9-0.5l-1.8 0.9 0.9 1.7 1.3-0.7c0.5-0.2 0.5-0.5 0.2-0.9l0.5-0.2 0.9 1.8 -0.5 0.2c-0.3-0.5-0.4-0.5-1-0.2l-1.2 0.6 0.8 1.4c0.2 0.3 0.3 0.3 0.4 0.2l1.4-0.7c0.6-0.3 0.6-0.7 0.5-1.3l0.4-0.2 0.7 1.5L61.7 38.5zM74.3 32.3c-0.4 0.6-1 1.3-2.9 1.8l-3 0.8 -0.1-0.5c0.5-0.1 0.8-0.2 0.7-0.8l-0.9-3.5c-0.2-0.7-0.4-0.7-1-0.5L67 29.1c0.5-0.2 1-0.3 1.5-0.5 0.5-0.1 0.8-0.3 1.2-0.4 1.8-0.5 2.8-0.5 3.6 0C74.8 29 75.1 30.9 74.3 32.3zM85.2 32.8c-4.8-0.4-4-6.7 0.7-6.3C90.6 26.9 89.9 33.2 85.2 32.8zM98.7 30.2c-0.3-0.1-0.8-0.3-0.9 0.1l-1.6 4.9L95.6 35l-2.8-5.8 -1 3.2c-0.2 0.6 0.1 0.8 0.7 0.9l-0.2 0.5L90 33.1l0.2-0.5c0.4 0.1 0.7 0.2 0.8-0.3l1.3-4.1c-0.2-0.2-0.4-0.3-0.7-0.4l0.2-0.5 1.9 0.6 2.4 4.9 0.8-2.5c0.2-0.8-0.1-0.8-0.7-1l0.2-0.5 2.4 0.8L98.7 30.2zM105.1 39.9c0.7 0.5 1.6 0.5 2.3 0l0.4 0.3c-0.4 0.5-1 0.9-1.6 1.2 -0.3-0.4-0.6-0.6-1-0.8 -0.2-0.1-0.5-0.3-0.8-0.5 -1.6-1.2-2-3.2-1-4.6 1-1.4 3.2-1.6 4.8-0.4 0.5 0.3 0.8 0.7 1.1 1.2 0.1 0.1 0.1 0.2 0.3 0.2l0.3 0.2 -1 1.5 -0.4-0.3c0.3-0.9 0.2-1.7-0.6-2.3C105.5 33.9 102.7 38.1 105.1 39.9zM113.1 48.6l-2-2.4 0.4-0.3c0.3 0.4 0.5 0.6 1 0.2l1.2-1 -1.9-2.3 -1.2 1c-0.5 0.4-0.3 0.7 0.1 1.1l-0.4 0.3 -2-2.4 0.4-0.3c0.3 0.4 0.5 0.7 1 0.3l2.9-2.4c0.5-0.4 0.2-0.7-0.1-1.1l0.4-0.3 2 2.4 -0.4 0.3c-0.3-0.4-0.5-0.7-1-0.3l-1.1 0.9 1.9 2.3 1.1-0.9c0.5-0.4 0.3-0.6 0-1.1l0.4-0.3 2 2.4 -0.4 0.3c-0.3-0.4-0.5-0.7-1-0.3l-2.9 2.4c-0.5 0.4-0.3 0.7 0.1 1.1L113.1 48.6zM116.8 56.1c-0.8-1.6-0.5-2 0.2-3.3 0.2-0.4 0.4-0.8 0.5-1.2l-0.3-0.6 -1.2 0.6c-0.6 0.3-0.3 0.7-0.1 1.2l-0.5 0.2 -1.5-3.1 0.5-0.2c0.2 0.5 0.4 0.9 1 0.6l3.3-1.6c0.6-0.3 0.4-0.6 0.2-1.1l0.5-0.2c0.2 0.4 0.4 0.7 0.6 1.1 0.3 0.5 0.6 1.1 0.7 1.4 0.6 1.2 0.8 2 0.6 2.7 -0.1 0.4-0.4 0.7-0.8 0.9 -0.7 0.3-1.4 0.1-2-0.5 -0.2 0.8-0.7 1.4-1 2.2 -0.2 0.6-0.1 0.8 0.1 1.4l-0.5 0.2C117 56.5 116.9 56.3 116.8 56.1zM118.8 60.5l-0.5 0.1 -0.9-3 0.5-0.1c0.1 0.4 0.2 0.8 0.8 0.6l3.6-1.1c0.4-0.1 0.6-0.3 0.4-0.8l-0.1-0.2 0.5-0.1 0.9 3 -0.5 0.2c-0.1-0.5-0.2-0.8-0.9-0.7l-3.6 1.1C118.6 59.7 118.7 60 118.8 60.5zM119.1 63.3c0-0.2 0.1-0.3-0.2-0.3l0-0.4 1.8-0.5 0.1 0.5c-0.7 0.3-1.3 0.9-1.2 1.7 0.1 0.6 0.5 1 1 0.9 1.3-0.2 0.9-3.2 2.8-3.4 1-0.1 1.7 0.6 1.9 1.7 0.1 0.4 0 0.9 0 1.3 0 0.2 0 0.2 0.1 0.3l0 0.3 -1.6 0.4 -0.1-0.5c1.6-0.7 1.1-2.5 0.4-2.4 -0.4 0.1-0.6 0.4-0.8 1 -0.4 1-0.8 2.4-2.1 2.6 -1 0.1-1.9-0.7-2.1-1.8C118.9 64.2 119 63.7 119.1 63.3zM125.7 69.7c-0.1 0.1-0.1 0.2-0.1 0.3l-0.3 4.5c0 0.2 0 0.3 0.1 0.4l0 0.4 -1.9 0 0-0.5c0.8-0.1 1.1 0 1.2-0.9l0.1-1 -4.2-0.3c-0.7-0.1-0.7 0.4-0.7 1l-0.5 0 0.2-3.5 0.5 0c0 0.5-0.2 1 0.6 1.1l4.2 0.3 0.1-1c0.1-0.8-0.2-0.8-1-1l0-0.5 1.9 0.3 0 0.4L125.7 69.7z"/></svg>
